# xmcd CD database file
#
# Track frame offsets:
#	182
#	12752
#	26542
#	39110
#	58490
#	70280
#	82542
#	95245
#	108210
#	122610
#	136080
#	149615
#	162682
#	173390
#	186977
#	201045
#	215585
#	229365
#	241225
#	252092
#
# Disc length: 3502 seconds
#
# Revision: 3
# Processed by: cddbd v1.5.2PL0 Copyright (c) Steve Scherf et al.
# Submitted via: CDex 1.51
#
DISCID=130dac14
DTITLE=Various Artist - Big Country Classics Vol.
DYEAR=1988
DGENRE=Country
TTITLE0=Elvis Presley - Moody Blue
TTITLE1=Tammy Wynette - Till I Can Make It On My Own
TTITLE2=Jerry Lee Lewis - Chantilly Lace
TTITLE3=Willie Nelson - Georgia On My Mind
TTITLE4=Dolly Parton - Jolene
TTITLE5=Tom T. Hall - The Year That Clayton Delaney Died
TTITLE6=Don Williams - You're My Best Friend
TTITLE7=Ronnie Milsap - What Goes On When The Sun Goes Down
TTITLE8=Bellamy Brothers - Let Your Love Flow
TTITLE9=Loretta Lynn - Coal Miner's Daughter
TTITLE10=Conway Twitty - You've Never Been This Far Before
TTITLE11=Bobby Bare - Marie Lavaux
TTITLE12=Joe Jones and Tammy Wynette - Near You
TTITLE13=Johnny Duncan - It Couldn't Have Been Better
TTITLE14=Charlie Pride - A Shoulder To Cry On
TTITLE15=Waylon Jennings - Luckenback, Texas
TTITLE16=Don Williams - I'm Just A Country Boy
TTITLE17=Moe and Joe - Just Good Ole Boys
TTITLE18=Charlie Rich - There Won't Be Anymore
TTITLE19=The Kendalls - Heaven's Just A Sin Away
EXTD=Trax Music Ltd. TRXCD 5004\ndiscext1=20 Number One Hits Of The 70's YEAR: 1988
EXTT0=
EXTT1=
EXTT2=
EXTT3=
EXTT4=
EXTT5=
EXTT6=
EXTT7=
EXTT8=
EXTT9=
EXTT10=
EXTT11=
EXTT12=
EXTT13=
EXTT14=
EXTT15=
EXTT16=
EXTT17=
EXTT18=
EXTT19=
PLAYORDER=
